<svg width="96" height="96" viewBox="0 0 96 96" fill="none" xmlns="http://www.w3.org/2000/svg">
    <rect width="96" height="96" rx="24" fill="black" />
    <path
        d="M51.7191 39.5146C61.5097 42.3018 71.5 51.0546 71.5 61.4342C71.5 72.1778 61.0156 81.1446 51.0838 83.4819L51.081 83.4824C50.6653 83.5805 50.0447 83.2661 50.0447 82.5499V40.8774C50.0447 39.8459 50.9807 39.3045 51.7191 39.5146ZM44.8525 83.4824L44.8497 83.4819C34.9184 81.146 24.5 72.1778 24.5 61.4342V12.7317C24.5 12.6322 24.5399 12.5695 24.5858 12.5317C24.6094 12.5123 24.6289 12.5046 24.6389 12.502C24.645 12.5004 24.6542 12.4982 24.6763 12.5026C35.0337 14.5123 45.8893 23.6821 45.8893 34.7366V82.5499C45.8893 83.2661 45.2691 83.5809 44.8525 83.4824Z"
        fill="white" />
</svg>